<svg xmlns="http://www.w3.org/2000/svg" width="150" height="150" viewBox="0 0 150 150"><g fill="#FFF"><path d="M99.189 41.317l-4.158 4.452 18.513 19.799-18.513 19.814 4.158 4.451 22.673-24.265zm-47.061 4.452l-4.157-4.452-22.675 24.251 22.675 24.265 4.157-4.451L33.62 65.568zm6.969 50.108L82.61 32.918l5.467 2.336-23.52 62.959z"/><path d="M138.298 109.627V15.219H8.869v94.423H2.986v13.54l7.253 11.632h126.694l7.251-11.632v-13.54h-5.887v-.015zM14.753 21.513h117.66v88.114H14.753V21.513zm123.545 99.762l-4.52 7.24H13.382l-4.514-7.24v-5.343h129.429v5.343h.001z"/><path d="M58.872 119.077h5.881v6.292h-5.881zm11.764 0h5.888v6.292h-5.888zm11.768 0h5.885v6.292h-5.885z"/></g></svg>