<svg xmlns="http://www.w3.org/2000/svg" width="150" height="150" viewBox="0 0 150 150"><path fill="#3C93D0" d="M14.987 49.968h26.129c3.182 0 5.761 2.76 5.761 6.164v27.957c0 3.404-2.579 6.164-5.761 6.164H14.987c-3.182 0-5.761-2.76-5.761-6.164V56.132c0-3.404 2.579-6.164 5.761-6.164z"/><g fill="#FFF"><path d="M32.887 64.435l-.741.793 3.298 3.527-3.298 3.529.741.793 4.039-4.322zm-8.383.793l-.741-.793-4.039 4.32 4.039 4.322.741-.793-3.297-3.529zm1.241 8.926l4.189-11.215.973.416-4.189 11.215z"/><path d="M39.853 76.604V59.786H16.798v16.819H15.75v2.412l1.292 2.073H39.61l1.292-2.073v-2.412h-1.049zM17.846 60.907h20.959v15.697H17.846V60.907zm22.007 17.771l-.805 1.29H17.602l-.804-1.29v-.952h23.055v.952z"/><path d="M25.705 78.286h1.048v1.121h-1.048zm2.096 0h1.048v1.121h-1.048zm2.096 0h1.048v1.121h-1.048z"/></g><path d="M57.479 78.824H56.4c-.249 0-.372-.159-.372-.478v-24.64c0-.318.124-.478.372-.478h8.557c1.612 0 2.889.504 3.832 1.513.942 1.009 1.414 2.388 1.414 4.14v4.657c0 1.752-.472 3.132-1.414 4.14-.943 1.009-2.22 1.513-3.832 1.513H58.26c-.249 0-.373.106-.373.319v8.837c.002.318-.135.477-.408.477zm.782-11.464h6.548c1.141 0 2.009-.338 2.604-1.015s.893-1.638.893-2.886v-4.498c0-1.274-.297-2.25-.893-2.926s-1.463-1.015-2.604-1.015h-6.548c-.249 0-.373.119-.373.358v11.664c.001.212.125.318.373.318zm17.076-12.181v-3.821c0-.292.124-.438.373-.438h1.116c.248 0 .371.146.371.438v3.821c0 .318-.123.478-.371.478H75.71c-.249-.001-.373-.16-.373-.478zm0 23.168V59.001c0-.319.124-.478.373-.478h1.079c.272 0 .408.159.408.478v19.346c0 .318-.123.478-.371.478H75.71c-.249-.001-.373-.16-.373-.478zm20.24.477h-7.776c-1.612 0-2.883-.504-3.812-1.512-.931-1.009-1.396-2.389-1.396-4.141v-8.996c0-1.751.465-3.131 1.396-4.14.93-1.008 2.2-1.512 3.812-1.512h3.2c1.612 0 2.889.504 3.832 1.512.942 1.009 1.413 2.388 1.413 4.14v5.056c0 .318-.148.478-.445.478H84.787c-.223 0-.334.119-.334.358v3.066c0 1.248.297 2.209.893 2.885.596.678 1.463 1.016 2.604 1.016h7.627c.272 0 .409.146.409.438v.916c0 .291-.136.436-.409.436zm-10.79-10.707h9.266c.223 0 .334-.12.334-.359v-3.542c0-1.247-.298-2.209-.893-2.886-.596-.677-1.464-1.015-2.604-1.015h-2.94c-1.142 0-2.009.338-2.604 1.015s-.893 1.639-.893 2.886v3.542c0 .239.111.359.334.359zm17.934 10.707h-1.08c-.248 0-.371-.159-.371-.478V59.001c0-.319.123-.478.371-.478h1.08c.271 0 .408.159.408.478v1.671h.149c.272-.558.756-1.055 1.45-1.493.695-.438 1.551-.657 2.568-.657h1.451c.272 0 .408.146.408.438v.955c0 .293-.136.425-.408.398h-1.75c-1.215 0-2.164.398-2.846 1.194-.682.796-1.023 1.871-1.023 3.224v13.614c.001.32-.136.479-.407.479zm11.644 0h-1.078c-.25 0-.373-.159-.373-.478V59.001c0-.319.123-.478.373-.478h1.078c.272 0 .409.159.409.478v1.671h.149c.271-.558.756-1.055 1.451-1.493.693-.438 1.549-.657 2.566-.657h1.451c.271 0 .408.146.408.438v.955c0 .293-.137.425-.408.398h-1.749c-1.216 0-2.164.398-2.846 1.194-.683.796-1.023 1.871-1.023 3.224v13.614c.001.32-.135.479-.408.479zm22.807 0h-7.775c-1.613 0-2.885-.504-3.814-1.512-.93-1.009-1.395-2.389-1.395-4.141v-8.996c0-1.751.465-3.131 1.395-4.14.93-1.008 2.201-1.512 3.814-1.512h3.199c1.611 0 2.889.504 3.832 1.512.941 1.009 1.414 2.388 1.414 4.14v5.056c0 .318-.15.478-.447.478h-11.012c-.225 0-.336.119-.336.358v3.066c0 1.248.299 2.209.893 2.885.596.678 1.463 1.016 2.604 1.016h7.629c.271 0 .408.146.408.438v.916c-.001.291-.138.436-.409.436zm-10.789-10.707h9.264c.223 0 .334-.12.334-.359v-3.542c0-1.247-.297-2.209-.893-2.886-.594-.677-1.463-1.015-2.604-1.015h-2.941c-1.141 0-2.008.338-2.604 1.015-.594.677-.893 1.639-.893 2.886v3.542c.001.239.112.359.337.359z" fill="#636464"/><path d="M56.914 88.985l-1.272-5.367h.685l.595 2.716c.149.669.283 1.338.373 1.855h.015c.082-.534.238-1.171.41-1.864l.67-2.707h.677l.61 2.724c.141.637.275 1.274.35 1.84h.015c.104-.59.246-1.187.402-1.856l.662-2.707h.663l-1.421 5.367h-.677l-.633-2.795c-.156-.686-.26-1.21-.328-1.753h-.015c-.089.534-.201 1.06-.387 1.753l-.715 2.795h-.679v-.001zm10.607-2.516h-1.95v1.936h2.173v.581h-2.821v-5.367h2.709v.581H65.57v1.696h1.95v.573zm3.594-2.78a5.934 5.934 0 0 1 1.184-.111c.647 0 1.064.12 1.377.391.26.207.417.525.417.947 0 .518-.32.972-.849 1.179v.016c.476.128 1.035.551 1.035 1.346 0 .463-.171.813-.425 1.076-.35.343-.916.501-1.734.501-.446 0-.789-.031-1.005-.063v-5.282zm.648 2.199h.588c.685 0 1.086-.383 1.086-.899 0-.629-.447-.877-1.102-.877-.298 0-.469.024-.573.049v1.727zm0 2.572c.127.024.312.032.543.032.67 0 1.288-.263 1.288-1.043 0-.733-.588-1.035-1.295-1.035h-.536v2.046zm10.024-4.771a8.799 8.799 0 0 1 1.379-.111c.93 0 1.592.231 2.031.67.447.438.707 1.059.707 1.927 0 .876-.253 1.593-.723 2.087-.469.501-1.242.771-2.218.771-.461 0-.849-.023-1.175-.063v-5.28h-.001zm.649 4.748c.164.032.402.039.655.039 1.384 0 2.136-.827 2.136-2.277.008-1.267-.662-2.07-2.031-2.07-.336 0-.588.032-.76.071v4.237zm9.438-1.968h-1.95v1.936h2.173v.581h-2.821v-5.367h2.709v.581h-2.061v1.696h1.95v.573zm4.763 2.516l-1.638-5.367h.7l.781 2.644c.216.726.402 1.379.535 2.008h.016c.141-.621.351-1.299.573-1.999l.849-2.652h.691l-1.794 5.367h-.713zm8.179-2.516h-1.95v1.936h2.174v.581h-2.821v-5.367h2.709v.581h-2.062v1.696h1.95v.573zm3.596-2.85h.646v4.785h2.145v.581h-2.791v-5.366zm10.04 2.628c0 1.847-1.05 2.826-2.329 2.826-1.326 0-2.256-1.099-2.256-2.724 0-1.704.99-2.818 2.33-2.818 1.369 0 2.255 1.122 2.255 2.716zm-3.892.087c0 1.147.581 2.174 1.6 2.174 1.027 0 1.607-1.012 1.607-2.229 0-1.067-.521-2.183-1.599-2.183-1.072 0-1.608 1.059-1.608 2.238zm7.264-2.652a6.977 6.977 0 0 1 1.242-.104c.641 0 1.109.16 1.406.447.277.254.439.645.439 1.122 0 .485-.133.868-.387 1.147-.342.39-.9.589-1.533.589-.193 0-.373-.009-.521-.048v2.149h-.646v-5.302zm.647 2.589c.143.04.32.055.535.055.783 0 1.26-.405 1.26-1.146 0-.71-.469-1.052-1.184-1.052-.283 0-.5.024-.611.056v2.087zm8.439.198h-1.949v1.936h2.174v.581h-2.822v-5.367h2.711v.581h-2.062v1.696h1.949v.573h-.001zm3.596-2.78a6.46 6.46 0 0 1 1.244-.111c.691 0 1.139.136 1.451.439.252.238.395.604.395 1.019 0 .708-.418 1.179-.945 1.369v.024c.387.143.617.525.736 1.083.164.749.283 1.266.387 1.473h-.67c-.082-.15-.193-.613-.334-1.281-.148-.741-.418-1.02-1.006-1.043h-.611v2.324h-.646v-5.296h-.001zm.646 2.446h.664c.693 0 1.133-.406 1.133-1.02 0-.692-.471-.996-1.154-1.004-.314 0-.537.033-.643.064v1.96z" fill="#3C93D0"/></svg>