<?xml version="1.0" encoding="utf-8"?>
<!-- Generator: Adobe Illustrator 16.0.0, SVG Export Plug-In . SVG Version: 6.00 Build 0)  -->
<!DOCTYPE svg PUBLIC "-//W3C//DTD SVG 1.1//EN" "http://www.w3.org/Graphics/SVG/1.1/DTD/svg11.dtd">
<svg version="1.1" id="Layer_1" xmlns="http://www.w3.org/2000/svg" xmlns:xlink="http://www.w3.org/1999/xlink" x="0px" y="0px"
	 width="150px" height="150px" viewBox="0 0 150 150" enable-background="new 0 0 150 150" xml:space="preserve">
<g>
	<polygon stroke="#FFFFFF" stroke-miterlimit="10" points="99.189,41.317 95.031,45.769 113.544,65.568 95.031,85.382 
		99.189,89.833 121.861,65.568 	"/>
	<polygon stroke="#FFFFFF" stroke-miterlimit="10" points="52.128,45.769 47.971,41.317 25.296,65.568 47.971,89.833 52.128,85.382 
		33.62,65.568 	"/>
	<polygon stroke="#FFFFFF" stroke-miterlimit="10" points="59.097,95.877 82.609,32.918 88.077,35.254 64.557,98.213 	"/>
	<path stroke="#FFFFFF" stroke-miterlimit="10" d="M138.298,109.627V15.219H8.869v94.424H2.986v13.539l7.253,11.633h126.695
		l7.25-11.633v-13.539h-5.887L138.298,109.627L138.298,109.627z M14.753,21.513h117.66v88.114H14.753V21.513z M138.298,121.275
		l-4.521,7.24H13.382l-4.514-7.24v-5.344h129.429L138.298,121.275L138.298,121.275z"/>
	<rect x="58.872" y="119.077" stroke="#FFFFFF" stroke-miterlimit="10" width="5.881" height="6.292"/>
	<rect x="70.636" y="119.077" stroke="#FFFFFF" stroke-miterlimit="10" width="5.887" height="6.292"/>
	<rect x="82.404" y="119.077" stroke="#FFFFFF" stroke-miterlimit="10" width="5.885" height="6.292"/>
</g>
<path stroke="#FFFFFF" stroke-miterlimit="10" d="M-8.535,126.128"/>
</svg>
