<?xml version="1.0" encoding="utf-8"?>
<!-- Generator: Adobe Illustrator 16.0.0, SVG Export Plug-In . SVG Version: 6.00 Build 0)  -->
<!DOCTYPE svg PUBLIC "-//W3C//DTD SVG 1.1//EN" "http://www.w3.org/Graphics/SVG/1.1/DTD/svg11.dtd">
<svg version="1.1" id="Layer_1" xmlns="http://www.w3.org/2000/svg" xmlns:xlink="http://www.w3.org/1999/xlink" x="0px" y="0px"
	 width="150px" height="150px" viewBox="0 0 150 150" enable-background="new 0 0 150 150" xml:space="preserve">
<g>
	<polygon fill="#FFFFFF" points="99.189,41.317 95.031,45.769 113.544,65.568 95.031,85.382 99.189,89.833 121.862,65.568 	"/>
	<polygon fill="#FFFFFF" points="52.128,45.769 47.971,41.317 25.296,65.568 47.971,89.833 52.128,85.382 33.62,65.568 	"/>
	<polygon fill="#FFFFFF" points="59.097,95.877 82.61,32.918 88.077,35.254 64.557,98.213 	"/>
	<path fill="#FFFFFF" d="M138.298,109.627V15.219H8.869v94.423H2.986v13.54l7.253,11.632h126.694l7.251-11.632v-13.54h-5.887
		V109.627z M14.753,21.513h117.66v88.114H14.753V21.513z M138.298,121.275l-4.52,7.24H13.382l-4.514-7.24v-5.343h129.429V121.275
		L138.298,121.275z"/>
	<rect x="58.872" y="119.077" fill="#FFFFFF" width="5.881" height="6.292"/>
	<rect x="70.636" y="119.077" fill="#FFFFFF" width="5.888" height="6.292"/>
	<rect x="82.404" y="119.077" fill="#FFFFFF" width="5.885" height="6.292"/>
</g>
<path fill="#FFFFFF" d="M-8.535,126.128"/>
</svg>
