<?xml version="1.0" encoding="utf-8"?>
<!-- Generator: Adobe Illustrator 16.0.0, SVG Export Plug-In . SVG Version: 6.00 Build 0)  -->
<!DOCTYPE svg PUBLIC "-//W3C//DTD SVG 1.1//EN" "http://www.w3.org/Graphics/SVG/1.1/DTD/svg11.dtd">
<svg version="1.1" id="Layer_1" xmlns="http://www.w3.org/2000/svg" xmlns:xlink="http://www.w3.org/1999/xlink" x="0px" y="0px"
	 width="150px" height="150px" viewBox="0 0 150 150" enable-background="new 0 0 150 150" xml:space="preserve">
<path fill="#3C93D0" d="M14.987,49.968h26.129c3.182,0,5.761,2.76,5.761,6.164v27.957c0,3.404-2.579,6.164-5.761,6.164H14.987
	c-3.182,0-5.761-2.76-5.761-6.164V56.132C9.226,52.728,11.805,49.968,14.987,49.968z"/>
<g>
	<polygon fill="#FFFFFF" points="32.887,64.435 32.146,65.228 35.444,68.755 32.146,72.284 32.887,73.077 36.926,68.755 	"/>
	<polygon fill="#FFFFFF" points="24.504,65.228 23.763,64.435 19.724,68.755 23.763,73.077 24.504,72.284 21.207,68.755 	"/>
	<polygon fill="#FFFFFF" points="25.745,74.154 29.934,62.939 30.907,63.355 26.718,74.57 	"/>
	<path fill="#FFFFFF" d="M39.853,76.604V59.786H16.798v16.819H15.75v2.412l1.292,2.073h22.568l1.292-2.073v-2.412H39.853z
		 M17.846,60.907h20.959v15.697H17.846V60.907z M39.853,78.678l-0.805,1.29H17.602l-0.804-1.29v-0.952h23.055V78.678L39.853,78.678z
		"/>
	<rect x="25.705" y="78.286" fill="#FFFFFF" width="1.048" height="1.121"/>
	<rect x="27.801" y="78.286" fill="#FFFFFF" width="1.048" height="1.121"/>
	<rect x="29.897" y="78.286" fill="#FFFFFF" width="1.048" height="1.121"/>
</g>
<g>
	<path fill="#636464" d="M57.479,78.824h-1.079c-0.249,0-0.372-0.159-0.372-0.478V53.706c0-0.318,0.124-0.478,0.372-0.478h8.557
		c1.612,0,2.889,0.504,3.832,1.513c0.942,1.009,1.414,2.388,1.414,4.14v4.657c0,1.752-0.472,3.132-1.414,4.14
		c-0.943,1.009-2.22,1.513-3.832,1.513h-6.697c-0.249,0-0.373,0.106-0.373,0.319v8.837C57.889,78.665,57.752,78.824,57.479,78.824z
		 M58.261,67.36h6.548c1.141,0,2.009-0.338,2.604-1.015s0.893-1.638,0.893-2.886v-4.498c0-1.274-0.297-2.25-0.893-2.926
		s-1.463-1.015-2.604-1.015h-6.548c-0.249,0-0.373,0.119-0.373,0.358v11.664C57.889,67.254,58.013,67.36,58.261,67.36z"/>
	<path fill="#636464" d="M75.337,55.179v-3.821c0-0.292,0.124-0.438,0.373-0.438h1.116c0.248,0,0.371,0.146,0.371,0.438v3.821
		c0,0.318-0.123,0.478-0.371,0.478H75.71C75.461,55.656,75.337,55.497,75.337,55.179z M75.337,78.347V59.001
		c0-0.319,0.124-0.478,0.373-0.478h1.079c0.272,0,0.408,0.159,0.408,0.478v19.346c0,0.318-0.123,0.478-0.371,0.478H75.71
		C75.461,78.824,75.337,78.665,75.337,78.347z"/>
	<path fill="#636464" d="M95.577,78.824h-7.776c-1.612,0-2.883-0.504-3.812-1.512c-0.931-1.009-1.396-2.389-1.396-4.141v-8.996
		c0-1.751,0.465-3.131,1.396-4.14c0.93-1.008,2.2-1.512,3.812-1.512h3.2c1.612,0,2.889,0.504,3.832,1.512
		c0.942,1.009,1.413,2.388,1.413,4.14v5.056c0,0.318-0.148,0.478-0.445,0.478H84.787c-0.223,0-0.334,0.119-0.334,0.358v3.066
		c0,1.248,0.297,2.209,0.893,2.885c0.596,0.678,1.463,1.016,2.604,1.016h7.627c0.272,0,0.409,0.146,0.409,0.438v0.916
		C95.986,78.679,95.85,78.824,95.577,78.824z M84.787,68.117h9.266c0.223,0,0.334-0.12,0.334-0.359v-3.542
		c0-1.247-0.298-2.209-0.893-2.886c-0.596-0.677-1.464-1.015-2.604-1.015H87.95c-1.142,0-2.009,0.338-2.604,1.015
		s-0.893,1.639-0.893,2.886v3.542C84.453,67.997,84.564,68.117,84.787,68.117z"/>
	<path fill="#636464" d="M102.721,78.824h-1.08c-0.248,0-0.371-0.159-0.371-0.478V59.001c0-0.319,0.123-0.478,0.371-0.478h1.08
		c0.271,0,0.408,0.159,0.408,0.478v1.671h0.149c0.272-0.558,0.756-1.055,1.45-1.493c0.695-0.438,1.551-0.657,2.568-0.657h1.451
		c0.272,0,0.408,0.146,0.408,0.438v0.955c0,0.293-0.136,0.425-0.408,0.398h-1.75c-1.215,0-2.164,0.398-2.846,1.194
		c-0.682,0.796-1.023,1.871-1.023,3.224v13.614C103.129,78.665,102.992,78.824,102.721,78.824z"/>
	<path fill="#636464" d="M114.365,78.824h-1.078c-0.25,0-0.373-0.159-0.373-0.478V59.001c0-0.319,0.123-0.478,0.373-0.478h1.078
		c0.272,0,0.409,0.159,0.409,0.478v1.671h0.149c0.271-0.558,0.756-1.055,1.451-1.493c0.693-0.438,1.549-0.657,2.566-0.657h1.451
		c0.271,0,0.408,0.146,0.408,0.438v0.955c0,0.293-0.137,0.425-0.408,0.398h-1.749c-1.216,0-2.164,0.398-2.846,1.194
		c-0.683,0.796-1.023,1.871-1.023,3.224v13.614C114.774,78.665,114.638,78.824,114.365,78.824z"/>
	<path fill="#636464" d="M137.172,78.824h-7.775c-1.613,0-2.885-0.504-3.814-1.512c-0.93-1.009-1.395-2.389-1.395-4.141v-8.996
		c0-1.751,0.465-3.131,1.395-4.14c0.93-1.008,2.201-1.512,3.814-1.512h3.199c1.611,0,2.889,0.504,3.832,1.512
		c0.941,1.009,1.414,2.388,1.414,4.14v5.056c0,0.318-0.15,0.478-0.447,0.478h-11.012c-0.225,0-0.336,0.119-0.336,0.358v3.066
		c0,1.248,0.299,2.209,0.893,2.885c0.596,0.678,1.463,1.016,2.604,1.016h7.629c0.271,0,0.408,0.146,0.408,0.438v0.916
		C137.58,78.679,137.443,78.824,137.172,78.824z M126.383,68.117h9.264c0.223,0,0.334-0.12,0.334-0.359v-3.542
		c0-1.247-0.297-2.209-0.893-2.886c-0.594-0.677-1.463-1.015-2.604-1.015h-2.941c-1.141,0-2.008,0.338-2.604,1.015
		c-0.594,0.677-0.893,1.639-0.893,2.886v3.542C126.047,67.997,126.158,68.117,126.383,68.117z"/>
</g>
<g>
	<path fill="#3C93D0" d="M56.914,88.985l-1.272-5.367h0.685l0.595,2.716c0.149,0.669,0.283,1.338,0.373,1.855h0.015
		c0.082-0.534,0.238-1.171,0.41-1.864l0.67-2.707h0.677l0.61,2.724c0.141,0.637,0.275,1.274,0.35,1.84h0.015
		c0.104-0.59,0.246-1.187,0.402-1.856l0.662-2.707h0.663l-1.421,5.367h-0.677l-0.633-2.795c-0.156-0.686-0.26-1.21-0.328-1.753
		h-0.015c-0.089,0.534-0.201,1.06-0.387,1.753l-0.715,2.795H56.914L56.914,88.985z"/>
	<path fill="#3C93D0" d="M67.521,86.469h-1.95v1.936h2.173v0.581h-2.821v-5.367h2.709v0.581H65.57v1.696h1.95V86.469z"/>
	<path fill="#3C93D0" d="M71.115,83.689c0.283-0.063,0.729-0.111,1.184-0.111c0.647,0,1.064,0.12,1.377,0.391
		c0.26,0.207,0.417,0.525,0.417,0.947c0,0.518-0.32,0.972-0.849,1.179v0.016c0.476,0.128,1.035,0.551,1.035,1.346
		c0,0.463-0.171,0.813-0.425,1.076c-0.35,0.343-0.916,0.501-1.734,0.501c-0.446,0-0.789-0.031-1.005-0.063V83.689L71.115,83.689z
		 M71.763,85.888h0.588c0.685,0,1.086-0.383,1.086-0.899c0-0.629-0.447-0.877-1.102-0.877c-0.298,0-0.469,0.024-0.573,0.049V85.888z
		 M71.763,88.46c0.127,0.024,0.312,0.032,0.543,0.032c0.67,0,1.288-0.263,1.288-1.043c0-0.733-0.588-1.035-1.295-1.035h-0.536V88.46
		z"/>
	<path fill="#3C93D0" d="M81.787,83.689c0.396-0.063,0.864-0.111,1.379-0.111c0.93,0,1.592,0.231,2.031,0.67
		c0.447,0.438,0.707,1.059,0.707,1.927c0,0.876-0.253,1.593-0.723,2.087c-0.469,0.501-1.242,0.771-2.218,0.771
		c-0.461,0-0.849-0.023-1.175-0.063v-5.28H81.787z M82.436,88.437c0.164,0.032,0.402,0.039,0.655,0.039
		c1.384,0,2.136-0.827,2.136-2.277c0.008-1.267-0.662-2.07-2.031-2.07c-0.336,0-0.588,0.032-0.76,0.071V88.437L82.436,88.437z"/>
	<path fill="#3C93D0" d="M91.874,86.469h-1.95v1.936h2.173v0.581h-2.821v-5.367h2.709v0.581h-2.061v1.696h1.95V86.469z"/>
	<path fill="#3C93D0" d="M96.637,88.985l-1.638-5.367h0.7l0.781,2.644c0.216,0.726,0.402,1.379,0.535,2.008h0.016
		c0.141-0.621,0.351-1.299,0.573-1.999l0.849-2.652h0.691l-1.794,5.367H96.637z"/>
	<path fill="#3C93D0" d="M104.816,86.469h-1.95v1.936h2.174v0.581h-2.821v-5.367h2.709v0.581h-2.062v1.696h1.95V86.469z"/>
	<path fill="#3C93D0" d="M108.412,83.619h0.646v4.785h2.145v0.581h-2.791V83.619z"/>
	<path fill="#3C93D0" d="M118.452,86.247c0,1.847-1.05,2.826-2.329,2.826c-1.326,0-2.256-1.099-2.256-2.724
		c0-1.704,0.99-2.818,2.33-2.818C117.566,83.531,118.452,84.653,118.452,86.247z M114.56,86.334c0,1.147,0.581,2.174,1.6,2.174
		c1.027,0,1.607-1.012,1.607-2.229c0-1.067-0.521-2.183-1.599-2.183C115.096,84.096,114.56,85.155,114.56,86.334z"/>
	<path fill="#3C93D0" d="M121.824,83.682c0.312-0.056,0.721-0.104,1.242-0.104c0.641,0,1.109,0.16,1.406,0.447
		c0.277,0.254,0.439,0.645,0.439,1.122c0,0.485-0.133,0.868-0.387,1.147c-0.342,0.39-0.9,0.589-1.533,0.589
		c-0.193,0-0.373-0.009-0.521-0.048v2.149h-0.646V83.682z M122.471,86.271c0.143,0.04,0.32,0.055,0.535,0.055
		c0.783,0,1.26-0.405,1.26-1.146c0-0.71-0.469-1.052-1.184-1.052c-0.283,0-0.5,0.024-0.611,0.056V86.271L122.471,86.271z"/>
	<path fill="#3C93D0" d="M130.91,86.469h-1.949v1.936h2.174v0.581h-2.822v-5.367h2.711v0.581h-2.062v1.696h1.949V86.469
		L130.91,86.469z"/>
	<path fill="#3C93D0" d="M134.506,83.689c0.328-0.07,0.797-0.111,1.244-0.111c0.691,0,1.139,0.136,1.451,0.439
		c0.252,0.238,0.395,0.604,0.395,1.019c0,0.708-0.418,1.179-0.945,1.369v0.024c0.387,0.143,0.617,0.525,0.736,1.083
		c0.164,0.749,0.283,1.266,0.387,1.473h-0.67c-0.082-0.15-0.193-0.613-0.334-1.281c-0.148-0.741-0.418-1.02-1.006-1.043h-0.611
		v2.324h-0.646V83.689L134.506,83.689z M135.152,86.135h0.664c0.693,0,1.133-0.406,1.133-1.02c0-0.692-0.471-0.996-1.154-1.004
		c-0.314,0-0.537,0.033-0.643,0.064V86.135z"/>
</g>
</svg>
